<svg xmlns="http://www.w3.org/2000/svg" width="1200" height="750" viewBox="0 0 1200 750" role="img" aria-labelledby="title desc">
  <title id="title">GrowWell home page preview</title>
  <desc id="desc">A stylized preview of the GrowWell landing page with a header, hero section, and fertilizer cards.</desc>
  <defs>
    <linearGradient id="bg" x1="0" y1="0" x2="1" y2="1">
      <stop offset="0%" stop-color="#fbf8f2"/>
      <stop offset="100%" stop-color="#f1eadf"/>
    </linearGradient>
    <linearGradient id="green" x1="0" y1="0" x2="1" y2="1">
      <stop offset="0%" stop-color="#2f6f4e"/>
      <stop offset="100%" stop-color="#21553b"/>
    </linearGradient>
  </defs>
  <rect width="1200" height="750" fill="url(#bg)"/>
  <rect x="40" y="30" width="1120" height="690" rx="34" fill="#fffdf8" stroke="#d9d1c4"/>
  <rect x="64" y="54" width="1072" height="72" rx="36" fill="#ffffff" stroke="#dfe4db"/>
  <circle cx="110" cy="90" r="22" fill="#d7e6d8" stroke="#c1d2c4"/>
  <circle cx="110" cy="90" r="14" fill="url(#green)"/>
  <text x="148" y="85" font-family="Georgia, serif" font-size="26" font-weight="700" fill="#1f2b22">GrowWell</text>
  <text x="148" y="108" font-family="Arial, sans-serif" font-size="12" letter-spacing="2" fill="#5b675f">FERTILIZER GUIDE</text>
  <rect x="790" y="72" width="96" height="28" rx="14" fill="#edf4ef"/>
  <rect x="892" y="72" width="128" height="28" rx="14" fill="#edf4ef"/>
  <rect x="1026" y="72" width="78" height="28" rx="14" fill="#edf4ef"/>
  <text x="807" y="91" font-family="Arial, sans-serif" font-size="12" fill="#5b675f">Home</text>
  <text x="906" y="91" font-family="Arial, sans-serif" font-size="12" fill="#5b675f">Find Fertilizer</text>
  <text x="1041" y="91" font-family="Arial, sans-serif" font-size="12" fill="#5b675f">Login</text>
  <rect x="68" y="154" width="620" height="320" rx="30" fill="#fffaf1" stroke="#dfd7c8"/>
  <text x="98" y="220" font-family="Georgia, serif" font-size="58" font-weight="700" fill="#1f2b22">Grow healthier crops</text>
  <text x="98" y="266" font-family="Georgia, serif" font-size="58" font-weight="700" fill="#1f2b22">with clearer guidance.</text>
  <text x="98" y="316" font-family="Arial, sans-serif" font-size="20" fill="#5b675f">A responsive farming companion for fertilizer choice, soil matching, and community learning.</text>
  <rect x="98" y="356" width="180" height="50" rx="25" fill="url(#green)"/>
  <text x="126" y="388" font-family="Arial, sans-serif" font-size="16" font-weight="700" fill="#ffffff">Find my fertilizer</text>
  <rect x="290" y="356" width="182" height="50" rx="25" fill="#ffffff" stroke="#d4ded1"/>
  <text x="325" y="388" font-family="Arial, sans-serif" font-size="16" font-weight="700" fill="#2f6f4e">Explore community</text>
  <rect x="724" y="154" width="408" height="320" rx="30" fill="#ffffff" stroke="#dfd7c8"/>
  <rect x="752" y="182" width="352" height="246" rx="24" fill="#dfeadf"/>
  <rect x="768" y="198" width="320" height="198" rx="18" fill="#7ea98c"/>
  <circle cx="920" cy="296" r="70" fill="#d7b97d" opacity="0.55"/>
  <rect x="728" y="516" width="104" height="14" rx="7" fill="#d6b15f"/>
  <rect x="840" y="516" width="138" height="14" rx="7" fill="#d6d1c8"/>
  <rect x="986" y="516" width="112" height="14" rx="7" fill="#d6d1c8"/>
  <text x="70" y="556" font-family="Georgia, serif" font-size="26" font-weight="700" fill="#1f2b22">Fertilizer cards</text>
  <rect x="68" y="582" width="250" height="112" rx="22" fill="#ffffff" stroke="#dfd7c8"/>
  <rect x="336" y="582" width="250" height="112" rx="22" fill="#ffffff" stroke="#dfd7c8"/>
  <rect x="604" y="582" width="250" height="112" rx="22" fill="#ffffff" stroke="#dfd7c8"/>
  <rect x="872" y="582" width="260" height="112" rx="22" fill="#ffffff" stroke="#dfd7c8"/>
  <rect x="88" y="606" width="70" height="44" rx="12" fill="#d7e6d8"/>
  <rect x="356" y="606" width="70" height="44" rx="12" fill="#d7e6d8"/>
  <rect x="624" y="606" width="70" height="44" rx="12" fill="#d7e6d8"/>
  <rect x="892" y="606" width="70" height="44" rx="12" fill="#d7e6d8"/>
  <text x="175" y="622" font-family="Arial, sans-serif" font-size="16" font-weight="700" fill="#1f2b22">NPK</text>
  <text x="443" y="622" font-family="Arial, sans-serif" font-size="16" font-weight="700" fill="#1f2b22">Organic</text>
  <text x="711" y="622" font-family="Arial, sans-serif" font-size="16" font-weight="700" fill="#1f2b22">Homemade</text>
  <text x="983" y="622" font-family="Arial, sans-serif" font-size="16" font-weight="700" fill="#1f2b22">Liquid</text>
  <text x="175" y="644" font-family="Arial, sans-serif" font-size="11" fill="#5b675f">Balanced feeding</text>
  <text x="443" y="644" font-family="Arial, sans-serif" font-size="11" fill="#5b675f">Soil-friendly growth</text>
  <text x="711" y="644" font-family="Arial, sans-serif" font-size="11" fill="#5b675f">Natural materials</text>
  <text x="983" y="644" font-family="Arial, sans-serif" font-size="11" fill="#5b675f">Fast uptake</text>
</svg>
